<?xml version="1.0"?>

<svg xmlns="http://www.w3.org/2000/svg" viewBox="0 0 260 240" width="260" height="240">
  <defs>
    <radialGradient id="celFace" cx="35%" cy="30%" r="70%">
      <stop offset="0%" stop-color="#FFF8EE"></stop>
      <stop offset="100%" stop-color="#F2DBB8"></stop>
    </radialGradient>
    <linearGradient id="celShirt" x1="0" y1="0" x2="0" y2="1">
      <stop offset="0%" stop-color="#FFD888"></stop>
      <stop offset="100%" stop-color="#E89A1F"></stop>
    </linearGradient>
    <radialGradient id="celFloor" cx="50%" cy="50%" r="50%">
      <stop offset="0%" stop-color="rgba(34,38,43,0.18)"></stop>
      <stop offset="100%" stop-color="rgba(34,38,43,0)"></stop>
    </radialGradient>
  </defs>
  
  <ellipse cx="130" cy="222" rx="86" ry="8" fill="url(#celFloor)"></ellipse>

  
  <g>
    <rect x="22" y="30" width="8" height="14" rx="2" fill="#FF7373" transform="rotate(20 26 37)"></rect>
    <rect x="60" y="14" width="6" height="12" rx="2" fill="#7567D5" transform="rotate(-15 63 20)"></rect>
    <rect x="220" y="20" width="8" height="14" rx="2" fill="#3FA98D" transform="rotate(25 224 27)"></rect>
    <rect x="240" y="74" width="6" height="12" rx="2" fill="#FFB800" transform="rotate(-30 243 80)"></rect>
    <rect x="14" y="86" width="6" height="12" rx="2" fill="#7567D5" transform="rotate(40 17 92)"></rect>
    <circle cx="44" cy="120" r="4" fill="#3FA98D"></circle>
    <circle cx="222" cy="142" r="4" fill="#FF7373"></circle>
    <circle cx="20" cy="160" r="4" fill="#FFB800"></circle>
  </g>

  
  <g fill="#FFD24A">
    <path d="M90 28 l3 8 l8 3 l-8 3 l-3 8 l-3 -8 l-8 -3 l8 -3 z"></path>
    <path d="M180 36 l3 6 l6 3 l-6 3 l-3 6 l-3 -6 l-6 -3 l6 -3 z"></path>
    <path d="M50 184 l2 4 l4 2 l-4 2 l-2 4 l-2 -4 l-4 -2 l4 -2 z"></path>
  </g>

  
  <path d="M104 130 L72 88" stroke="url(#celShirt)" stroke-width="14" stroke-linecap="round" fill="none"></path>
  <ellipse cx="68" cy="84" rx="10" ry="10" fill="url(#celFace)"></ellipse>
  <path d="M156 130 L188 88" stroke="url(#celShirt)" stroke-width="14" stroke-linecap="round" fill="none"></path>
  <ellipse cx="192" cy="84" rx="10" ry="10" fill="url(#celFace)"></ellipse>

  
  <ellipse cx="130" cy="160" rx="44" ry="44" fill="url(#celShirt)"></ellipse>
  <ellipse cx="116" cy="142" rx="14" ry="8" fill="rgba(255,255,255,0.35)"></ellipse>

  
  <circle cx="130" cy="100" r="44" fill="url(#celFace)"></circle>
  
  <path d="M88 92 q4 -38 42 -42 q38 4 42 42 q-14 -10 -42 -10 q-28 0 -42 10 z" fill="#3B2A24"></path>
  
  <path d="M112 102 q5 -5 10 0" stroke="#22262B" stroke-width="2.8" fill="none" stroke-linecap="round"></path>
  <path d="M138 102 q5 -5 10 0" stroke="#22262B" stroke-width="2.8" fill="none" stroke-linecap="round"></path>
  
  <circle cx="108" cy="116" r="5" fill="rgba(255,140,140,0.5)"></circle>
  <circle cx="152" cy="116" r="5" fill="rgba(255,140,140,0.5)"></circle>
  
  <path d="M118 122 q12 12 24 0" stroke="#22262B" stroke-width="2.6" fill="none" stroke-linecap="round"></path>

  
  <g transform="translate(180 70)">
    <rect x="-8" y="-6" width="16" height="14" rx="2" fill="#FFD24A"></rect>
    <rect x="-12" y="8" width="24" height="4" rx="1" fill="#E89A1F"></rect>
    <path d="M-8 -6 q-8 0 -8 8 q0 4 6 4" stroke="#FFD24A" stroke-width="2" fill="none"></path>
    <path d="M8 -6 q8 0 8 8 q0 4 -6 4" stroke="#FFD24A" stroke-width="2" fill="none"></path>
  </g>
</svg>