<?xml version="1.0"?>

<svg xmlns="http://www.w3.org/2000/svg" viewBox="0 0 240 220" width="240" height="220">
  <defs>
    <radialGradient id="runFace" cx="35%" cy="30%" r="70%">
      <stop offset="0%" stop-color="#FFF8EE"></stop>
      <stop offset="100%" stop-color="#F2DBB8"></stop>
    </radialGradient>
    <linearGradient id="runShirt" x1="0" y1="0" x2="0" y2="1">
      <stop offset="0%" stop-color="#82CDB6"></stop>
      <stop offset="100%" stop-color="#3FA98D"></stop>
    </linearGradient>
    <linearGradient id="runPants" x1="0" y1="0" x2="0" y2="1">
      <stop offset="0%" stop-color="#5E6976"></stop>
      <stop offset="100%" stop-color="#3A3F47"></stop>
    </linearGradient>
    <radialGradient id="runFloor" cx="50%" cy="50%" r="50%">
      <stop offset="0%" stop-color="rgba(34,38,43,0.18)"></stop>
      <stop offset="100%" stop-color="rgba(34,38,43,0)"></stop>
    </radialGradient>
  </defs>
  
  <ellipse cx="120" cy="200" rx="86" ry="8" fill="url(#runFloor)"></ellipse>

  
  <g stroke="#3FA98D" stroke-width="3" stroke-linecap="round" opacity="0.5">
    <line x1="20" y1="100" x2="48" y2="100"></line>
    <line x1="14" y1="130" x2="40" y2="130"></line>
    <line x1="22" y1="160" x2="46" y2="160"></line>
  </g>

  
  <g fill="#FFD24A">
    <path d="M40 50 l3 6 l6 3 l-6 3 l-3 6 l-3 -6 l-6 -3 l6 -3 z"></path>
    <path d="M200 40 l2.5 5 l5 2.5 l-5 2.5 l-2.5 5 l-2.5 -5 l-5 -2.5 l5 -2.5 z"></path>
  </g>

  
  <path d="M122 158 L108 198" stroke="url(#runPants)" stroke-width="16" stroke-linecap="round" fill="none"></path>
  <ellipse cx="105" cy="200" rx="14" ry="6" fill="#22262B"></ellipse>

  
  <ellipse cx="130" cy="130" rx="42" ry="36" fill="url(#runShirt)"></ellipse>
  
  <ellipse cx="118" cy="116" rx="14" ry="8" fill="rgba(255,255,255,0.3)"></ellipse>

  
  <path d="M138 156 L162 178" stroke="url(#runPants)" stroke-width="16" stroke-linecap="round" fill="none"></path>
  <ellipse cx="166" cy="180" rx="14" ry="6" fill="#22262B"></ellipse>

  
  <path d="M104 124 L82 142" stroke="url(#runShirt)" stroke-width="12" stroke-linecap="round" fill="none"></path>
  <ellipse cx="78" cy="143" rx="8" ry="8" fill="url(#runFace)"></ellipse>
  
  <path d="M156 124 L178 96" stroke="url(#runShirt)" stroke-width="12" stroke-linecap="round" fill="none"></path>
  <ellipse cx="182" cy="92" rx="8" ry="8" fill="url(#runFace)"></ellipse>

  
  <circle cx="130" cy="78" r="36" fill="url(#runFace)"></circle>
  
  <path d="M96 72 q4 -32 34 -36 q30 4 34 36 q-12 -10 -34 -10 q-22 0 -34 10 z" fill="#3B2A24"></path>
  
  <path d="M116 80 q4 -4 8 0" stroke="#22262B" stroke-width="2.5" fill="none" stroke-linecap="round"></path>
  <path d="M136 80 q4 -4 8 0" stroke="#22262B" stroke-width="2.5" fill="none" stroke-linecap="round"></path>
  
  <circle cx="110" cy="90" r="4" fill="rgba(255,140,140,0.5)"></circle>
  <circle cx="150" cy="90" r="4" fill="rgba(255,140,140,0.5)"></circle>
  
  <path d="M122 96 q8 6 16 0" stroke="#22262B" stroke-width="2.4" fill="none" stroke-linecap="round"></path>
</svg>