<?xml version="1.0"?>

<svg xmlns="http://www.w3.org/2000/svg" viewBox="0 0 64 64" width="64" height="64">
  <defs>
    <linearGradient id="badgeBg" x1="0" y1="0" x2="0" y2="1">
      <stop offset="0%" stop-color="#E8F4DC"></stop>
      <stop offset="100%" stop-color="#D2E8BD"></stop>
    </linearGradient>
    <clipPath id="circ"><circle cx="32" cy="32" r="28"></circle></clipPath>
  </defs>
  
  <circle cx="32" cy="32" r="30" fill="none" stroke="#A8C988" stroke-width="2.5"></circle>
  
  <circle cx="32" cy="32" r="28" fill="url(#badgeBg)"></circle>
  <g clip-path="url(#circ)">
    
    <ellipse cx="32" cy="20" rx="14" ry="13" fill="#3B2A24"></ellipse>
    <path d="M16 30 q-2 16 6 28 h20 q8 -12 6 -28 z" fill="#3B2A24"></path>
    
    <ellipse cx="32" cy="27" rx="10" ry="11" fill="#F5DCC2"></ellipse>
    
    <path d="M14 56 q4 -14 18 -14 t18 14 z" fill="#9ACB7A"></path>
    <path d="M28 44 q4 4 8 0 v6 h-8 z" fill="#F5DCC2"></path>
    
    <ellipse cx="28" cy="28" rx="1.2" ry="1.8" fill="#22262B"></ellipse>
    <ellipse cx="36" cy="28" rx="1.2" ry="1.8" fill="#22262B"></ellipse>
    
    <path d="M29 33 q3 2 6 0" stroke="#22262B" stroke-width="1.2" fill="none" stroke-linecap="round"></path>
    
    <ellipse cx="25" cy="32" rx="2" ry="1.4" fill="rgba(255,140,140,0.4)"></ellipse>
    <ellipse cx="39" cy="32" rx="2" ry="1.4" fill="rgba(255,140,140,0.4)"></ellipse>
  </g>
</svg>